<svg width="44" height="44" viewBox="0 0 44 44" fill="none" xmlns="http://www.w3.org/2000/svg">
<path d="M16.6853 18.3385C17.5402 18.0629 23.5584 10.261 15.9874 5.19055C12.8886 10.769 12.1794 13.5625 16.6853 18.3385Z" stroke="#3867B3" stroke-linecap="round"/>
<path d="M16.6844 18.3394C16.4855 19.0581 11.4992 23.5002 6.99936 17.5002C9.5 15.5002 12.9986 14.5012 16.6844 18.3394Z" stroke="#3867B3" stroke-linecap="round"/>
<path d="M19.5 21.5002L16.8322 18.4745" stroke="#3867B3" stroke-linecap="round"/>
<path d="M17 29.5C16.9996 24.8125 22.654 16.9062 25.9403 13C29 17 34 24.6808 34 29.5C34 34.5 31.8555 38 25.9403 38C20.025 38 17.0005 35.0569 17 29.5Z" stroke="#3867B3"/>
</svg>
