<svg width="84" height="24" viewBox="0 0 84 24" fill="none" xmlns="http://www.w3.org/2000/svg">
<path fill-rule="evenodd" clip-rule="evenodd" d="M8.54076 20.6V10.6522C8.54076 7.5913 9.74637 5.75478 11.5548 4.53043C13.0618 3.51015 14.5223 3 15.3223 3V14.4783C15.3223 15.4986 14.8702 17.8452 13.0618 19.0696C11.2534 20.2939 9.29427 20.6 8.54076 20.6ZM6.84065 20.5917C5.83597 20.5917 2.7711 19.3673 1.56549 17.5308C0.35988 15.6943 0.282546 13.7047 0.812608 12.1743C2.31962 12.4293 3.98652 13.1011 5.33443 14.4699C6.84065 15.9995 6.84065 18.2936 6.84065 20.588V20.5917ZM20.1032 20.3472C20.372 20.5861 20.7304 20.7056 21.1784 20.7056C21.6264 20.7056 21.9848 20.5861 22.2536 20.3472C22.5373 20.0933 22.6792 19.7648 22.6792 19.3616V15.7104H30.788V19.3616C30.788 19.7648 30.9224 20.0933 31.1912 20.3472C31.4749 20.5861 31.8408 20.7056 32.2888 20.7056C32.7368 20.7056 33.0952 20.5861 33.364 20.3472C33.6328 20.1083 33.7672 19.7797 33.7672 19.3616V11.5216C33.7672 10.1029 33.4834 8.87093 32.916 7.8256C32.3634 6.78026 31.557 5.98133 30.4968 5.4288C29.4365 4.87626 28.1821 4.6 26.7336 4.6C24.5234 4.6 22.7986 5.21226 21.5592 6.4368C20.3197 7.66133 19.7 9.35626 19.7 11.5216V19.3616C19.7 19.7797 19.8344 20.1083 20.1032 20.3472ZM30.788 11.4544V13.4032H22.6792V11.4544C22.6792 8.4528 24.0306 6.952 26.7336 6.952C28.0776 6.952 29.0856 7.3328 29.7576 8.0944C30.4445 8.84106 30.788 9.96106 30.788 11.4544ZM53.6375 20.3472C53.9063 20.5861 54.2647 20.7056 54.7127 20.7056C55.1607 20.7056 55.5191 20.5861 55.7879 20.3472C56.0717 20.0933 56.2135 19.7648 56.2135 19.3616V15.7104H64.3223V19.3616C64.3223 19.7648 64.4567 20.0933 64.7255 20.3472C65.0093 20.5861 65.3751 20.7056 65.8231 20.7056C66.2711 20.7056 66.6295 20.5861 66.8983 20.3472C67.1671 20.1083 67.3015 19.7797 67.3015 19.3616V11.5216C67.3015 10.1029 67.0178 8.87093 66.4503 7.8256C65.8978 6.78026 65.0914 5.98133 64.0311 5.4288C62.9709 4.87626 61.7165 4.6 60.2679 4.6C58.0578 4.6 56.333 5.21226 55.0935 6.4368C53.8541 7.66133 53.2343 9.35626 53.2343 11.5216V19.3616C53.2343 19.7797 53.3687 20.1083 53.6375 20.3472ZM64.3223 11.4544V13.4032H56.2135V11.4544C56.2135 8.4528 57.565 6.952 60.2679 6.952C61.6119 6.952 62.6199 7.3328 63.2919 8.0944C63.9789 8.84106 64.3223 9.96106 64.3223 11.4544ZM73.1584 20.0112C74.4427 20.4891 75.8166 20.728 77.28 20.728C78.5046 20.728 79.5798 20.5563 80.5056 20.2128C81.4315 19.8544 82.1483 19.3541 82.656 18.712C83.1638 18.0549 83.4176 17.3008 83.4176 16.4496C83.4176 15.5536 83.1936 14.7845 82.7456 14.1424C82.3126 13.5003 81.6182 12.9477 80.6624 12.4848C79.7067 12.0069 78.4448 11.5813 76.8768 11.208C75.4582 10.8795 74.4576 10.536 73.8752 10.1776C73.3078 9.80426 73.024 9.33386 73.024 8.7664C73.024 8.19893 73.3152 7.7584 73.8976 7.4448C74.495 7.11626 75.3238 6.952 76.384 6.952C77.2352 6.952 78.0192 7.10133 78.736 7.4C79.4678 7.69866 80.0502 8.10933 80.4832 8.632C80.7819 8.9904 81.1627 9.1696 81.6256 9.1696C81.8795 9.1696 82.1035 9.1024 82.2976 8.968C82.656 8.6992 82.8427 8.37813 82.8576 8.0048C82.8576 7.7808 82.7606 7.512 82.5664 7.1984C81.999 6.37706 81.1702 5.7424 80.08 5.2944C79.0048 4.83146 77.7728 4.6 76.384 4.6C75.1446 4.6 74.0395 4.7792 73.0688 5.1376C72.1131 5.48106 71.3664 5.97386 70.8288 6.616C70.2912 7.2432 70.0224 7.96 70.0224 8.7664C70.0224 10.0357 70.5302 11.0736 71.5456 11.88C72.576 12.6864 74.2187 13.336 76.4736 13.8288C77.9072 14.1424 78.9227 14.5008 79.52 14.904C80.1174 15.2923 80.416 15.8075 80.416 16.4496C80.416 17.0619 80.1398 17.5397 79.5872 17.8832C79.0347 18.2117 78.2656 18.376 77.28 18.376C76.2496 18.376 75.2491 18.2043 74.2784 17.8608C73.3227 17.5024 72.4939 17.0021 71.792 16.36C71.3739 16.0165 71.0155 15.8448 70.7168 15.8448C70.4331 15.8448 70.1718 15.9643 69.9328 16.2032C69.6342 16.5019 69.4848 16.8155 69.4848 17.144C69.4848 17.4277 69.5968 17.6816 69.8208 17.9056C70.7616 18.8165 71.8742 19.5184 73.1584 20.0112ZM39.7584 20.504C38.6235 20.504 37.7424 20.2053 37.1152 19.608C36.488 19.0107 36.1744 18.1744 36.1744 17.0992V8.1392C36.1744 7.09387 36.4731 6.28 37.0704 5.6976C37.6827 5.1152 38.5264 4.824 39.6016 4.824H42.7376C44.455 4.824 45.9408 5.1376 47.1952 5.7648C48.4496 6.392 49.4054 7.29547 50.0624 8.4752C50.7344 9.65494 51.0704 11.0587 51.0704 12.6864C51.0704 14.3141 50.7344 15.7179 50.0624 16.8976C49.4054 18.0624 48.4496 18.9584 47.1952 19.5856C45.9558 20.1979 44.4699 20.504 42.7376 20.504H39.7584ZM42.5136 18.1968C44.3803 18.1968 45.7691 17.7488 46.68 16.8528C47.591 15.9419 48.0464 14.5531 48.0464 12.6864C48.0464 10.8197 47.5835 9.43094 46.6576 8.52C45.7467 7.59414 44.3654 7.1312 42.5136 7.1312H40.1168C39.8182 7.1312 39.5792 7.22827 39.4 7.4224C39.2358 7.61654 39.1536 7.88534 39.1536 8.2288V17.0992C39.1536 17.4427 39.2358 17.7115 39.4 17.9056C39.5792 18.0997 39.8182 18.1968 40.1168 18.1968H42.5136Z" fill="white"/>
</svg>
