<svg width="83" height="18" viewBox="0 0 83 18" fill="none" xmlns="http://www.w3.org/2000/svg">
<path fill-rule="evenodd" clip-rule="evenodd" d="M8.04076 17.6V7.65217C8.04076 4.5913 9.24637 2.75478 11.0548 1.53043C12.5618 0.510145 14.0223 0 14.8223 0V11.4783C14.8223 12.4986 14.3702 14.8452 12.5618 16.0696C10.7534 17.2939 8.79427 17.6 8.04076 17.6ZM6.34065 17.5917C5.33597 17.5917 2.2711 16.3673 1.06549 14.5308C-0.14012 12.6943 -0.217454 10.7047 0.312608 9.17427C1.81962 9.42935 3.48652 10.1011 4.83443 11.4699C6.34065 12.9995 6.34065 15.2936 6.34065 17.588V17.5917ZM19.6032 17.3472C19.872 17.5861 20.2304 17.7056 20.6784 17.7056C21.1264 17.7056 21.4848 17.5861 21.7536 17.3472C22.0373 17.0933 22.1792 16.7648 22.1792 16.3616V12.7104H30.288V16.3616C30.288 16.7648 30.4224 17.0933 30.6912 17.3472C30.9749 17.5861 31.3408 17.7056 31.7888 17.7056C32.2368 17.7056 32.5952 17.5861 32.864 17.3472C33.1328 17.1083 33.2672 16.7797 33.2672 16.3616V8.5216C33.2672 7.10293 32.9834 5.87093 32.416 4.8256C31.8634 3.78026 31.057 2.98133 29.9968 2.4288C28.9365 1.87626 27.6821 1.6 26.2336 1.6C24.0234 1.6 22.2986 2.21226 21.0592 3.4368C19.8197 4.66133 19.2 6.35626 19.2 8.5216V16.3616C19.2 16.7797 19.3344 17.1083 19.6032 17.3472ZM30.288 8.4544V10.4032H22.1792V8.4544C22.1792 5.4528 23.5306 3.952 26.2336 3.952C27.5776 3.952 28.5856 4.3328 29.2576 5.0944C29.9445 5.84106 30.288 6.96106 30.288 8.4544ZM53.1375 17.3472C53.4063 17.5861 53.7647 17.7056 54.2127 17.7056C54.6607 17.7056 55.0191 17.5861 55.2879 17.3472C55.5717 17.0933 55.7135 16.7648 55.7135 16.3616V12.7104H63.8223V16.3616C63.8223 16.7648 63.9567 17.0933 64.2255 17.3472C64.5093 17.5861 64.8751 17.7056 65.3231 17.7056C65.7711 17.7056 66.1295 17.5861 66.3983 17.3472C66.6671 17.1083 66.8015 16.7797 66.8015 16.3616V8.5216C66.8015 7.10293 66.5178 5.87093 65.9503 4.8256C65.3978 3.78026 64.5914 2.98133 63.5311 2.4288C62.4709 1.87626 61.2165 1.6 59.7679 1.6C57.5578 1.6 55.833 2.21226 54.5935 3.4368C53.3541 4.66133 52.7343 6.35626 52.7343 8.5216V16.3616C52.7343 16.7797 52.8687 17.1083 53.1375 17.3472ZM63.8223 8.4544V10.4032H55.7135V8.4544C55.7135 5.4528 57.065 3.952 59.7679 3.952C61.1119 3.952 62.1199 4.3328 62.7919 5.0944C63.4789 5.84106 63.8223 6.96106 63.8223 8.4544ZM72.6584 17.0112C73.9427 17.4891 75.3166 17.728 76.78 17.728C78.0046 17.728 79.0798 17.5563 80.0056 17.2128C80.9315 16.8544 81.6483 16.3541 82.156 15.712C82.6638 15.0549 82.9176 14.3008 82.9176 13.4496C82.9176 12.5536 82.6936 11.7845 82.2456 11.1424C81.8126 10.5003 81.1182 9.94773 80.1624 9.4848C79.2067 9.00693 77.9448 8.58133 76.3768 8.208C74.9582 7.87946 73.9576 7.536 73.3752 7.1776C72.8078 6.80426 72.524 6.33386 72.524 5.7664C72.524 5.19893 72.8152 4.7584 73.3976 4.4448C73.995 4.11626 74.8238 3.952 75.884 3.952C76.7352 3.952 77.5192 4.10133 78.236 4.4C78.9678 4.69866 79.5502 5.10933 79.9832 5.632C80.2819 5.9904 80.6627 6.1696 81.1256 6.1696C81.3795 6.1696 81.6035 6.1024 81.7976 5.968C82.156 5.6992 82.3427 5.37813 82.3576 5.0048C82.3576 4.7808 82.2606 4.512 82.0664 4.1984C81.499 3.37706 80.6702 2.7424 79.58 2.2944C78.5048 1.83146 77.2728 1.6 75.884 1.6C74.6446 1.6 73.5395 1.7792 72.5688 2.1376C71.6131 2.48106 70.8664 2.97386 70.3288 3.616C69.7912 4.2432 69.5224 4.96 69.5224 5.7664C69.5224 7.03573 70.0302 8.0736 71.0456 8.88C72.076 9.6864 73.7187 10.336 75.9736 10.8288C77.4072 11.1424 78.4227 11.5008 79.02 11.904C79.6174 12.2923 79.916 12.8075 79.916 13.4496C79.916 14.0619 79.6398 14.5397 79.0872 14.8832C78.5347 15.2117 77.7656 15.376 76.78 15.376C75.7496 15.376 74.7491 15.2043 73.7784 14.8608C72.8227 14.5024 71.9939 14.0021 71.292 13.36C70.8739 13.0165 70.5155 12.8448 70.2168 12.8448C69.9331 12.8448 69.6718 12.9643 69.4328 13.2032C69.1342 13.5019 68.9848 13.8155 68.9848 14.144C68.9848 14.4277 69.0968 14.6816 69.3208 14.9056C70.2616 15.8165 71.3742 16.5184 72.6584 17.0112ZM39.2584 17.504C38.1235 17.504 37.2424 17.2053 36.6152 16.608C35.988 16.0107 35.6744 15.1744 35.6744 14.0992V5.1392C35.6744 4.09387 35.9731 3.28 36.5704 2.6976C37.1827 2.1152 38.0264 1.824 39.1016 1.824H42.2376C43.955 1.824 45.4408 2.1376 46.6952 2.7648C47.9496 3.392 48.9054 4.29547 49.5624 5.4752C50.2344 6.65494 50.5704 8.05867 50.5704 9.6864C50.5704 11.3141 50.2344 12.7179 49.5624 13.8976C48.9054 15.0624 47.9496 15.9584 46.6952 16.5856C45.4558 17.1979 43.9699 17.504 42.2376 17.504H39.2584ZM42.0136 15.1968C43.8803 15.1968 45.2691 14.7488 46.18 13.8528C47.091 12.9419 47.5464 11.5531 47.5464 9.6864C47.5464 7.81974 47.0835 6.43094 46.1576 5.52C45.2467 4.59414 43.8654 4.1312 42.0136 4.1312H39.6168C39.3182 4.1312 39.0792 4.22827 38.9 4.4224C38.7358 4.61654 38.6536 4.88534 38.6536 5.2288V14.0992C38.6536 14.4427 38.7358 14.7115 38.9 14.9056C39.0792 15.0997 39.3182 15.1968 39.6168 15.1968H42.0136Z" fill="#1C625D"/>
</svg>
