<svg width="44" height="44" viewBox="0 0 44 44" fill="none" xmlns="http://www.w3.org/2000/svg">
<mask id="path-1-outside-1_3246_6124" maskUnits="userSpaceOnUse" x="15.5" y="6" width="14" height="10" fill="black">
<rect fill="white" x="15.5" y="6" width="14" height="10"/>
<path d="M16.818 10.931V13.934C16.818 14.11 16.884 14.154 17.005 14.154H20.899C21.075 14.154 21.218 14.264 21.218 14.473C21.218 14.682 21.075 14.792 20.899 14.792H16.895C16.169 14.792 16.103 14.341 16.103 13.934V7.532C16.103 7.125 16.169 6.674 16.895 6.674H20.679C20.855 6.674 20.998 6.784 20.998 6.993C20.998 7.202 20.855 7.312 20.679 7.312H17.005C16.884 7.312 16.818 7.356 16.818 7.532V10.293H20.679C20.855 10.293 20.998 10.403 20.998 10.612C20.998 10.821 20.855 10.931 20.679 10.931H16.818ZM27.9173 8.951C27.6533 8.951 27.6093 8.874 27.5653 8.489C27.5103 7.972 27.1583 7.202 25.6073 7.202C24.2323 7.202 23.7483 8.071 23.7153 8.973C23.6603 10.106 23.6603 11.536 23.7153 12.548C23.7593 13.648 24.4523 14.308 25.7283 14.308C26.8283 14.308 27.5653 13.978 27.5983 12.977C27.5983 12.658 27.7413 12.581 27.9723 12.581C28.1813 12.581 28.3243 12.647 28.3243 12.999C28.3243 14.033 27.6533 14.957 25.7723 14.957C24.1993 14.957 23.0443 14.242 22.9893 12.35C22.9563 11.228 22.9563 10.15 22.9893 9.105C23.0443 7.268 24.2323 6.564 25.6183 6.564C27.1693 6.564 28.2583 7.4 28.2583 8.456C28.2583 8.797 28.2253 8.951 27.9173 8.951Z"/>
</mask>
<path d="M16.818 10.931V13.934C16.818 14.11 16.884 14.154 17.005 14.154H20.899C21.075 14.154 21.218 14.264 21.218 14.473C21.218 14.682 21.075 14.792 20.899 14.792H16.895C16.169 14.792 16.103 14.341 16.103 13.934V7.532C16.103 7.125 16.169 6.674 16.895 6.674H20.679C20.855 6.674 20.998 6.784 20.998 6.993C20.998 7.202 20.855 7.312 20.679 7.312H17.005C16.884 7.312 16.818 7.356 16.818 7.532V10.293H20.679C20.855 10.293 20.998 10.403 20.998 10.612C20.998 10.821 20.855 10.931 20.679 10.931H16.818ZM27.9173 8.951C27.6533 8.951 27.6093 8.874 27.5653 8.489C27.5103 7.972 27.1583 7.202 25.6073 7.202C24.2323 7.202 23.7483 8.071 23.7153 8.973C23.6603 10.106 23.6603 11.536 23.7153 12.548C23.7593 13.648 24.4523 14.308 25.7283 14.308C26.8283 14.308 27.5653 13.978 27.5983 12.977C27.5983 12.658 27.7413 12.581 27.9723 12.581C28.1813 12.581 28.3243 12.647 28.3243 12.999C28.3243 14.033 27.6533 14.957 25.7723 14.957C24.1993 14.957 23.0443 14.242 22.9893 12.35C22.9563 11.228 22.9563 10.15 22.9893 9.105C23.0443 7.268 24.2323 6.564 25.6183 6.564C27.1693 6.564 28.2583 7.4 28.2583 8.456C28.2583 8.797 28.2253 8.951 27.9173 8.951Z" fill="#3C7A83"/>
<path d="M16.818 10.931V10.731H16.618V10.931H16.818ZM16.818 10.293H16.618V10.493H16.818V10.293ZM16.618 10.931V13.934H17.018V10.931H16.618ZM16.618 13.934C16.618 14.038 16.6357 14.1586 16.7217 14.2484C16.811 14.3416 16.9279 14.354 17.005 14.354V13.954C16.9958 13.954 16.9894 13.9536 16.9852 13.9531C16.981 13.9526 16.9801 13.9522 16.9816 13.9526C16.9831 13.9531 16.9874 13.9545 16.993 13.9578C16.9989 13.9612 17.005 13.9658 17.0105 13.9716C17.016 13.9774 17.0195 13.9827 17.0215 13.9864C17.0234 13.9899 17.0235 13.9911 17.0228 13.9887C17.0221 13.9863 17.0209 13.9808 17.0198 13.9715C17.0188 13.9622 17.018 13.9499 17.018 13.934H16.618ZM17.005 14.354H20.899V13.954H17.005V14.354ZM20.899 14.354C20.9462 14.354 20.9742 14.3684 20.9884 14.3817C21.0003 14.3927 21.018 14.4167 21.018 14.473H21.418C21.418 14.3203 21.3642 14.1848 21.2606 14.0886C21.1594 13.9946 21.0279 13.954 20.899 13.954V14.354ZM21.018 14.473C21.018 14.5293 21.0003 14.5533 20.9884 14.5643C20.9742 14.5776 20.9462 14.592 20.899 14.592V14.992C21.0279 14.992 21.1594 14.9514 21.2606 14.8574C21.3642 14.7612 21.418 14.6257 21.418 14.473H21.018ZM20.899 14.592H16.895V14.992H20.899V14.592ZM16.895 14.592C16.5758 14.592 16.453 14.496 16.394 14.406C16.3223 14.2966 16.303 14.1369 16.303 13.934H15.903C15.903 14.1381 15.9167 14.4074 16.0595 14.6253C16.215 14.8625 16.4882 14.992 16.895 14.992V14.592ZM16.303 13.934V7.532H15.903V13.934H16.303ZM16.303 7.532C16.303 7.32908 16.3223 7.1694 16.394 7.06001C16.453 6.97004 16.5758 6.874 16.895 6.874V6.474C16.4882 6.474 16.215 6.60346 16.0595 6.84074C15.9167 7.0586 15.903 7.32792 15.903 7.532H16.303ZM16.895 6.874H20.679V6.474H16.895V6.874ZM20.679 6.874C20.7262 6.874 20.7542 6.88845 20.7684 6.90168C20.7803 6.91271 20.798 6.93671 20.798 6.993H21.198C21.198 6.84029 21.1442 6.70479 21.0406 6.60857C20.9394 6.51455 20.8079 6.474 20.679 6.474V6.874ZM20.798 6.993C20.798 7.04929 20.7803 7.07329 20.7684 7.08432C20.7542 7.09755 20.7262 7.112 20.679 7.112V7.512C20.8079 7.512 20.9394 7.47145 21.0406 7.37743C21.1442 7.28121 21.198 7.14571 21.198 6.993H20.798ZM20.679 7.112H17.005V7.512H20.679V7.112ZM17.005 7.112C16.9279 7.112 16.811 7.12443 16.7217 7.21762C16.6357 7.3074 16.618 7.42804 16.618 7.532H17.018C17.018 7.51611 17.0188 7.50381 17.0198 7.49449C17.0209 7.48515 17.0221 7.47971 17.0228 7.47726C17.0235 7.47488 17.0234 7.4761 17.0215 7.4796C17.0195 7.4833 17.016 7.48865 17.0105 7.49438C17.005 7.50016 16.9989 7.50479 16.993 7.50819C16.9874 7.51148 16.9831 7.51292 16.9816 7.51338C16.9801 7.51381 16.981 7.51339 16.9852 7.51291C16.9894 7.51243 16.9958 7.512 17.005 7.512V7.112ZM16.618 7.532V10.293H17.018V7.532H16.618ZM16.818 10.493H20.679V10.093H16.818V10.493ZM20.679 10.493C20.7262 10.493 20.7542 10.5074 20.7684 10.5207C20.7803 10.5317 20.798 10.5557 20.798 10.612H21.198C21.198 10.4593 21.1442 10.3238 21.0406 10.2276C20.9394 10.1336 20.8079 10.093 20.679 10.093V10.493ZM20.798 10.612C20.798 10.6683 20.7803 10.6923 20.7684 10.7033C20.7542 10.7166 20.7262 10.731 20.679 10.731V11.131C20.8079 11.131 20.9394 11.0904 21.0406 10.9964C21.1442 10.9002 21.198 10.7647 21.198 10.612H20.798ZM20.679 10.731H16.818V11.131H20.679V10.731ZM27.5653 8.489L27.3664 8.51016L27.3666 8.51171L27.5653 8.489ZM23.7153 8.973L23.915 8.9827L23.9151 8.98031L23.7153 8.973ZM23.7153 12.548L23.9151 12.54L23.915 12.5371L23.7153 12.548ZM27.5983 12.977L27.7983 12.9836V12.977H27.5983ZM22.9893 12.35L23.1892 12.3442L23.1892 12.3441L22.9893 12.35ZM22.9893 9.105L23.1892 9.11131L23.1892 9.11099L22.9893 9.105ZM27.9173 8.751C27.8576 8.751 27.8297 8.74616 27.8173 8.74222C27.8126 8.74076 27.813 8.74027 27.8156 8.74206C27.8184 8.74403 27.82 8.74599 27.8199 8.74596C27.8182 8.74363 27.8082 8.7279 27.7964 8.6778C27.7848 8.6286 27.7749 8.56147 27.764 8.46629L27.3666 8.51171C27.3777 8.60903 27.3897 8.6959 27.407 8.76942C27.4241 8.84204 27.4498 8.91774 27.4976 8.98279C27.6088 9.13422 27.7779 9.151 27.9173 9.151V8.751ZM27.7641 8.46784C27.7331 8.17603 27.6167 7.80185 27.2803 7.50226C26.944 7.20278 26.4149 7.002 25.6073 7.002V7.402C26.3507 7.402 26.7731 7.58622 27.0143 7.80099C27.2553 8.01565 27.3424 8.28497 27.3664 8.51016L27.7641 8.46784ZM25.6073 7.002C24.8749 7.002 24.3516 7.23523 24.0094 7.61546C23.6715 7.99085 23.533 8.48429 23.5154 8.96569L23.9151 8.98031C23.9305 8.55971 24.0505 8.16764 24.3067 7.88304C24.5585 7.60327 24.9646 7.402 25.6073 7.402V7.002ZM23.5155 8.9633C23.4602 10.1024 23.4602 11.5393 23.5156 12.5589L23.915 12.5371C23.8604 11.5327 23.8603 10.1096 23.915 8.9827L23.5155 8.9633ZM23.5154 12.556C23.5391 13.1472 23.7392 13.6432 24.1264 13.9896C24.5118 14.3342 25.0572 14.508 25.7283 14.508V14.108C25.1234 14.108 24.6842 13.9518 24.3931 13.6914C24.1039 13.4328 23.9355 13.0488 23.9151 12.54L23.5154 12.556ZM25.7283 14.508C26.2915 14.508 26.7969 14.4248 27.1709 14.1865C27.5601 13.9385 27.7798 13.5404 27.7982 12.9836L27.3984 12.9704C27.3837 13.4146 27.2184 13.682 26.9559 13.8492C26.6781 14.0262 26.265 14.108 25.7283 14.108V14.508ZM27.7983 12.977C27.7983 12.8415 27.8293 12.8109 27.8336 12.8069C27.8414 12.7998 27.8707 12.781 27.9723 12.781V12.381C27.8429 12.381 27.6851 12.4007 27.5636 12.5118C27.4387 12.6261 27.3983 12.7934 27.3983 12.977H27.7983ZM27.9723 12.781C28.0642 12.781 28.0834 12.7977 28.0868 12.801C28.0909 12.805 28.1243 12.8418 28.1243 12.999H28.5243C28.5243 12.8042 28.4862 12.632 28.3665 12.515C28.2461 12.3973 28.0893 12.381 27.9723 12.381V12.781ZM28.1243 12.999C28.1243 13.4719 27.9721 13.9021 27.6203 14.2167C27.266 14.5335 26.6823 14.757 25.7723 14.757V15.157C26.7433 15.157 27.4355 14.9185 27.887 14.5148C28.341 14.1089 28.5243 13.5601 28.5243 12.999H28.1243ZM25.7723 14.757C25.0126 14.757 24.3836 14.584 23.9405 14.2101C23.5023 13.8405 23.2155 13.2488 23.1892 12.3442L22.7894 12.3558C22.8181 13.3432 23.1362 14.055 23.6826 14.5159C24.2239 14.9725 24.959 15.157 25.7723 15.157V14.757ZM23.1892 12.3441C23.1563 11.2259 23.1563 10.152 23.1892 9.11131L22.7894 9.09869C22.7562 10.148 22.7562 11.2301 22.7894 12.3559L23.1892 12.3441ZM23.1892 9.11099C23.2153 8.2373 23.5084 7.66 23.9342 7.298C24.3645 6.9322 24.9565 6.764 25.6183 6.764V6.364C24.894 6.364 24.1991 6.5478 23.6751 6.99325C23.1467 7.44249 22.8182 8.1357 22.7894 9.09901L23.1892 9.11099ZM25.6183 6.764C27.121 6.764 28.0583 7.56378 28.0583 8.456H28.4583C28.4583 7.23622 27.2175 6.364 25.6183 6.364V6.764ZM28.0583 8.456C28.0583 8.53983 28.0561 8.60286 28.0499 8.65206C28.0436 8.70185 28.0346 8.72348 28.03 8.73152C28.0284 8.73424 28.0288 8.73474 28.0221 8.7376C28.01 8.74279 27.98 8.751 27.9173 8.751V9.151C28.1016 9.151 28.2774 9.10323 28.3766 8.93123C28.4187 8.85814 28.4372 8.77734 28.4467 8.70235C28.4563 8.62676 28.4583 8.54267 28.4583 8.456H28.0583Z" fill="#3C7A83" mask="url(#path-1-outside-1_3246_6124)"/>
<path d="M22.3492 27.5893C21.9992 26.8893 23.3992 18.4893 31.4492 20.2393C29.6993 25.4893 28.299 27.5893 22.3492 27.5893Z" stroke="#3C7A83" stroke-linecap="round"/>
<path d="M21.6498 27.5893C21.9998 26.8893 20.5998 18.4893 12.5498 20.2393C14.2997 25.4893 15.6999 27.5893 21.6498 27.5893Z" stroke="#3C7A83" stroke-linecap="round"/>
<path d="M22 27L22 34.5" stroke="#3C7A83" stroke-linecap="round"/>
<path d="M4 32C8 31 14 31 14 31" stroke="#3C7A83" stroke-linecap="round" stroke-linejoin="round"/>
<path d="M30 31C30 31 36.5 31 40 32" stroke="#3C7A83" stroke-linecap="round" stroke-linejoin="round"/>
</svg>
