<svg width="44" height="44" viewBox="0 0 44 44" fill="none" xmlns="http://www.w3.org/2000/svg">
<mask id="path-1-outside-1_3246_6139" maskUnits="userSpaceOnUse" x="14.5" y="6" width="15" height="10" fill="black">
<rect fill="white" x="14.5" y="6" width="15" height="10"/>
<path d="M14.8945 14.561V7.081C14.8945 6.828 15.0045 6.674 15.3565 6.674H17.6555C19.3385 6.674 20.8015 7.334 20.8015 9.116V9.193C20.8015 10.997 19.4045 11.646 17.7545 11.646H15.6095V14.561C15.6095 14.781 15.4555 14.891 15.2465 14.891C15.0375 14.891 14.8945 14.781 14.8945 14.561ZM17.5675 7.279H15.6095V11.041H17.7545C19.1625 11.041 20.0315 10.535 20.0315 9.27V9.105C20.0315 7.851 18.9865 7.279 17.5675 7.279ZM22.876 14.451V7.026C22.876 6.806 23.019 6.696 23.228 6.696C23.437 6.696 23.591 6.806 23.591 7.026V10.293H28.387V7.026C28.387 6.806 28.53 6.696 28.739 6.696C28.948 6.696 29.102 6.806 29.102 7.026V14.451C29.102 14.671 28.948 14.781 28.739 14.781C28.53 14.781 28.387 14.671 28.387 14.451V10.931H23.591V14.451C23.591 14.671 23.437 14.781 23.228 14.781C23.019 14.781 22.876 14.671 22.876 14.451Z"/>
</mask>
<path d="M14.8945 14.561V7.081C14.8945 6.828 15.0045 6.674 15.3565 6.674H17.6555C19.3385 6.674 20.8015 7.334 20.8015 9.116V9.193C20.8015 10.997 19.4045 11.646 17.7545 11.646H15.6095V14.561C15.6095 14.781 15.4555 14.891 15.2465 14.891C15.0375 14.891 14.8945 14.781 14.8945 14.561ZM17.5675 7.279H15.6095V11.041H17.7545C19.1625 11.041 20.0315 10.535 20.0315 9.27V9.105C20.0315 7.851 18.9865 7.279 17.5675 7.279ZM22.876 14.451V7.026C22.876 6.806 23.019 6.696 23.228 6.696C23.437 6.696 23.591 6.806 23.591 7.026V10.293H28.387V7.026C28.387 6.806 28.53 6.696 28.739 6.696C28.948 6.696 29.102 6.806 29.102 7.026V14.451C29.102 14.671 28.948 14.781 28.739 14.781C28.53 14.781 28.387 14.671 28.387 14.451V10.931H23.591V14.451C23.591 14.671 23.437 14.781 23.228 14.781C23.019 14.781 22.876 14.671 22.876 14.451Z" fill="#3C7A83"/>
<path d="M15.6095 11.646V11.446H15.4095V11.646H15.6095ZM15.6095 7.279V7.079H15.4095V7.279H15.6095ZM15.6095 11.041H15.4095V11.241H15.6095V11.041ZM15.0945 14.561V7.081H14.6945V14.561H15.0945ZM15.0945 7.081C15.0945 6.97896 15.1172 6.94146 15.1336 6.92541C15.1513 6.90802 15.2043 6.874 15.3565 6.874V6.474C15.1567 6.474 14.9787 6.51698 14.8535 6.63984C14.7268 6.76404 14.6945 6.93004 14.6945 7.081H15.0945ZM15.3565 6.874H17.6555V6.474H15.3565V6.874ZM17.6555 6.874C18.4758 6.874 19.2175 7.03563 19.748 7.39267C20.2671 7.74204 20.6015 8.28936 20.6015 9.116H21.0015C21.0015 8.16064 20.6045 7.48696 19.9713 7.06083C19.3496 6.64237 18.5182 6.474 17.6555 6.474V6.874ZM20.6015 9.116V9.193H21.0015V9.116H20.6015ZM20.6015 9.193C20.6015 10.0353 20.2798 10.5848 19.7823 10.932C19.2736 11.2871 18.5583 11.446 17.7545 11.446V11.846C18.6007 11.846 19.409 11.6804 20.0112 11.26C20.6248 10.8317 21.0015 10.1547 21.0015 9.193H20.6015ZM17.7545 11.446H15.6095V11.846H17.7545V11.446ZM15.4095 11.646V14.561H15.8095V11.646H15.4095ZM15.4095 14.561C15.4095 14.6207 15.3908 14.6443 15.3768 14.6562C15.3581 14.6721 15.3182 14.691 15.2465 14.691V15.091C15.3838 15.091 15.5254 15.0549 15.636 14.9608C15.7512 14.8627 15.8095 14.7213 15.8095 14.561H15.4095ZM15.2465 14.691C15.175 14.691 15.1399 14.6722 15.125 14.659C15.1138 14.649 15.0945 14.6254 15.0945 14.561H14.6945C14.6945 14.7166 14.7467 14.858 14.8593 14.958C14.9682 15.0548 15.109 15.091 15.2465 15.091V14.691ZM17.5675 7.079H15.6095V7.479H17.5675V7.079ZM15.4095 7.279V11.041H15.8095V7.279H15.4095ZM15.6095 11.241H17.7545V10.841H15.6095V11.241ZM17.7545 11.241C18.4764 11.241 19.0955 11.1124 19.5383 10.7919C19.9932 10.4626 20.2315 9.95366 20.2315 9.27H19.8315C19.8315 9.85133 19.6353 10.2279 19.3038 10.4679C18.9601 10.7166 18.4406 10.841 17.7545 10.841V11.241ZM20.2315 9.27V9.105H19.8315V9.27H20.2315ZM20.2315 9.105C20.2315 8.41322 19.9387 7.89436 19.4445 7.55662C18.9604 7.22583 18.2994 7.079 17.5675 7.079V7.479C18.2546 7.479 18.8256 7.61817 19.2188 7.88687C19.6018 8.14864 19.8315 8.54278 19.8315 9.105H20.2315ZM23.591 10.293H23.391V10.493H23.591V10.293ZM28.387 10.293V10.493H28.587V10.293H28.387ZM28.387 10.931H28.587V10.731H28.387V10.931ZM23.591 10.931V10.731H23.391V10.931H23.591ZM23.076 14.451V7.026H22.676V14.451H23.076ZM23.076 7.026C23.076 6.96156 23.0952 6.93796 23.1065 6.92798C23.1213 6.91478 23.1565 6.896 23.228 6.896V6.496C23.0905 6.496 22.9496 6.53222 22.8407 6.62902C22.7282 6.72903 22.676 6.87044 22.676 7.026H23.076ZM23.228 6.896C23.2997 6.896 23.3396 6.91494 23.3582 6.93081C23.3722 6.94274 23.391 6.96633 23.391 7.026H23.791C23.791 6.86567 23.7327 6.72426 23.6175 6.62619C23.5069 6.53206 23.3653 6.496 23.228 6.496V6.896ZM23.391 7.026V10.293H23.791V7.026H23.391ZM23.591 10.493H28.387V10.093H23.591V10.493ZM28.587 10.293V7.026H28.187V10.293H28.587ZM28.587 7.026C28.587 6.96156 28.6062 6.93796 28.6175 6.92798C28.6323 6.91478 28.6675 6.896 28.739 6.896V6.496C28.6015 6.496 28.4606 6.53222 28.3517 6.62902C28.2392 6.72903 28.187 6.87044 28.187 7.026H28.587ZM28.739 6.896C28.8107 6.896 28.8506 6.91494 28.8692 6.93081C28.8832 6.94274 28.902 6.96633 28.902 7.026H29.302C29.302 6.86567 29.2437 6.72426 29.1285 6.62619C29.0179 6.53206 28.8763 6.496 28.739 6.496V6.896ZM28.902 7.026V14.451H29.302V7.026H28.902ZM28.902 14.451C28.902 14.5107 28.8832 14.5343 28.8692 14.5462C28.8506 14.5621 28.8107 14.581 28.739 14.581V14.981C28.8763 14.981 29.0179 14.9449 29.1285 14.8508C29.2437 14.7527 29.302 14.6113 29.302 14.451H28.902ZM28.739 14.581C28.6675 14.581 28.6323 14.5622 28.6175 14.549C28.6062 14.539 28.587 14.5154 28.587 14.451H28.187C28.187 14.6066 28.2392 14.748 28.3517 14.848C28.4606 14.9448 28.6015 14.981 28.739 14.981V14.581ZM28.587 14.451V10.931H28.187V14.451H28.587ZM28.387 10.731H23.591V11.131H28.387V10.731ZM23.391 10.931V14.451H23.791V10.931H23.391ZM23.391 14.451C23.391 14.5107 23.3722 14.5343 23.3582 14.5462C23.3396 14.5621 23.2997 14.581 23.228 14.581V14.981C23.3653 14.981 23.5069 14.9449 23.6175 14.8508C23.7327 14.7527 23.791 14.6113 23.791 14.451H23.391ZM23.228 14.581C23.1565 14.581 23.1213 14.5622 23.1065 14.549C23.0952 14.539 23.076 14.5154 23.076 14.451H22.676C22.676 14.6066 22.7282 14.748 22.8407 14.848C22.9496 14.9448 23.0905 14.981 23.228 14.981V14.581Z" fill="#3C7A83" mask="url(#path-1-outside-1_3246_6139)"/>
<path d="M22.3492 27.5893C21.9992 26.8893 23.3992 18.4893 31.4492 20.2393C29.6993 25.4893 28.2991 27.5893 22.3492 27.5893Z" stroke="#3C7A83" stroke-linecap="round"/>
<path d="M21.6498 27.5893C21.9998 26.8893 20.5998 18.4893 12.5498 20.2393C14.2997 25.4893 15.7 27.5893 21.6498 27.5893Z" stroke="#3C7A83" stroke-linecap="round"/>
<path d="M22 27L22 34.5" stroke="#3C7A83" stroke-linecap="round"/>
<path d="M4 32C8 31 14 31 14 31" stroke="#3C7A83" stroke-linecap="round" stroke-linejoin="round"/>
<path d="M30 31C30 31 36.5 31 40 32" stroke="#3C7A83" stroke-linecap="round" stroke-linejoin="round"/>
</svg>
