<svg width="44" height="44" viewBox="0 0 44 44" fill="none" xmlns="http://www.w3.org/2000/svg">
<path d="M4 32C8 31 12.5 31 12.5 31" stroke="#3867B3" stroke-linecap="round" stroke-linejoin="round"/>
<path d="M25.5 31C25.5 31 36.5 31 40 32" stroke="#3867B3" stroke-linecap="round" stroke-linejoin="round"/>
<path d="M25 17.7143C25 15.0888 27.5333 10.2517 29.108 7.6371C29.2816 7.34888 29.6995 7.36082 29.8665 7.65291C31.4392 10.4036 34 14.4146 34 17.7143C34 21.2857 31.375 22 29.5 22C27.625 22 25 21.2857 25 17.7143Z" stroke="#3867B3" stroke-linecap="round"/>
<path d="M15.5 31.8571C15.5 29.973 17.3869 26.5356 18.6155 24.5924C18.7899 24.3166 19.1929 24.3282 19.3629 24.6068C20.5909 26.619 22.5 29.4881 22.5 31.8571C22.5 34.4762 20.4583 35 19 35C17.5417 35 15.5 34.4762 15.5 31.8571Z" stroke="#3867B3" stroke-linecap="round"/>
<path d="M10 17.7143C10 16.3996 11.2406 14.0452 12.1163 12.6083C12.2877 12.3269 12.6961 12.3374 12.8664 12.6194C13.743 14.0707 15 16.0601 15 17.7143C15 19.619 13.5417 20 12.5 20C11.4583 20 10 19.619 10 17.7143Z" stroke="#3867B3" stroke-linecap="round"/>
</svg>
