<svg width="24" height="24" viewBox="0 0 24 24" fill="none" xmlns="http://www.w3.org/2000/svg">
<circle cx="12" cy="12" r="9.5" stroke="#EC2337"/>
<path fill-rule="evenodd" clip-rule="evenodd" d="M11.9941 13.373C11.5801 13.373 11.2441 13.037 11.2441 12.623V8.20398C11.2441 7.78998 11.5801 7.45398 11.9941 7.45398C12.4081 7.45398 12.7441 7.78998 12.7441 8.20398V12.623C12.7441 13.037 12.4081 13.373 11.9941 13.373Z" fill="#EC2337"/>
<path fill-rule="evenodd" clip-rule="evenodd" d="M12.004 16.7959C11.451 16.7959 10.999 16.3489 10.999 15.7959C10.999 15.2429 11.442 14.7959 11.994 14.7959H12.004C12.557 14.7959 13.004 15.2429 13.004 15.7959C13.004 16.3489 12.557 16.7959 12.004 16.7959Z" fill="#EC2337"/>
</svg>
