<svg width="24" height="24" viewBox="0 0 24 24" fill="none" xmlns="http://www.w3.org/2000/svg">
<circle cx="12" cy="12" r="9.5" stroke="#DE1364"/>
<path fill-rule="evenodd" clip-rule="evenodd" d="M11.9941 13.373C11.5801 13.373 11.2441 13.037 11.2441 12.623V8.20401C11.2441 7.79001 11.5801 7.45401 11.9941 7.45401C12.4081 7.45401 12.7441 7.79001 12.7441 8.20401V12.623C12.7441 13.037 12.4081 13.373 11.9941 13.373Z" fill="#DE1364"/>
<path fill-rule="evenodd" clip-rule="evenodd" d="M12.0038 16.7959C11.4508 16.7959 10.9988 16.3489 10.9988 15.7959C10.9988 15.2429 11.4418 14.7959 11.9938 14.7959H12.0038C12.5568 14.7959 13.0038 15.2429 13.0038 15.7959C13.0038 16.3489 12.5568 16.7959 12.0038 16.7959Z" fill="#DE1364"/>
</svg>
